# xmcd
#
# Track frame offsets: 
#        150
#        22005
#        39517
#        57862
#        82392
#        99150
#        118740
#        135097
#        153400
#        170637
#        185187
#
# Disc length: 2702 seconds
#
# Revision: 2
# Processed by: cddbd v1.5.2PL0 Copyright (c) Steve Scherf et al.
# Submitted via: ExactAudioCopyFreeDBPlugin 1.0
#
DISCID=910a8c0b
DTITLE=OBLIVION DUST - BUTTERFRY HEAD
DYEAR=2000
DGENRE=Rock
TTITLE0=NO REGRETS
TTITLE1=DESIGNER FETUS
TTITLE2=SELFISH
TTITLE3=AGAIN
TTITLE4=BLACK TONGUE
TTITLE5=NUDE,THE
TTITLE6=NEXT BIG THING
TTITLE7=FOREVER
TTITLE8=CRAWL
TTITLE9=WHICH HALF DO YOU OWN?
TTITLE10=LUCKY#10
EXTD=
EXTT0=
EXTT1=
EXTT2=
EXTT3=
EXTT4=
EXTT5=
EXTT6=
EXTT7=
EXTT8=
EXTT9=
EXTT10=
PLAYORDER=
